<mxfile host="app.diagrams.net" modified="2021-04-19T13:28:04.010Z" agent="5.0 (Windows NT 10.0; Win64; x64) AppleWebKit/537.36 (KHTML, like Gecko) Chrome/89.0.4389.128 Safari/537.36" etag="iCWUI2akUfa-yePNFAne" version="14.6.1" type="github">
  <diagram id="SuNVphhk_r-dVFvO_X8W" name="Page-1">
    <mxGraphModel dx="460" dy="766" grid="1" gridSize="10" guides="1" tooltips="1" connect="1" arrows="1" fold="1" page="1" pageScale="1" pageWidth="827" pageHeight="1169" math="1" shadow="0">
      <root>
        <mxCell id="0" />
        <mxCell id="1" parent="0" />
        <mxCell id="CILamcJ8nU6C3IH5OURe-44" value="" style="ellipse;whiteSpace=wrap;html=1;aspect=fixed;fontFamily=Noto Sans;fontSource=https%3A%2F%2Ffonts.googleapis.com%2Fcss%3Ffamily%3DNoto%2BSans;fontSize=15;strokeWidth=2;align=left;fillColor=none;" vertex="1" parent="1">
          <mxGeometry x="720" y="305" width="80" height="80" as="geometry" />
        </mxCell>
        <mxCell id="hj8D2mjoaMXsEgfOs6C1-46" value="" style="rounded=0;whiteSpace=wrap;html=1;fontFamily=Noto Sans;fontSource=https%3A%2F%2Ffonts.googleapis.com%2Fcss%3Ffamily%3DNoto%2BSans;fontSize=16;fillColor=#ffffff;align=left;strokeWidth=3;" parent="1" vertex="1">
          <mxGeometry x="10" y="1060" width="160" height="100" as="geometry" />
        </mxCell>
        <mxCell id="-FZ3qA6GbJ0KDv9lzx8t-1" value="Trigonometry" style="text;html=1;strokeColor=none;fillColor=none;align=left;verticalAlign=middle;whiteSpace=wrap;rounded=0;fontFamily=Noto Sans;fontSource=https%3A%2F%2Ffonts.googleapis.com%2Fcss%3Ffamily%3DNoto%2BSans;fontStyle=1;fontSize=48;" parent="1" vertex="1">
          <mxGeometry x="40" y="39" width="560" height="20" as="geometry" />
        </mxCell>
        <mxCell id="-FZ3qA6GbJ0KDv9lzx8t-2" value="" style="endArrow=none;html=1;fontSize=48;strokeWidth=9;" parent="1" edge="1">
          <mxGeometry width="50" height="50" relative="1" as="geometry">
            <mxPoint x="30" y="83" as="sourcePoint" />
            <mxPoint x="30" y="18" as="targetPoint" />
          </mxGeometry>
        </mxCell>
        <mxCell id="-FZ3qA6GbJ0KDv9lzx8t-3" value="" style="endArrow=none;html=1;fontSize=48;strokeWidth=1;" parent="1" edge="1">
          <mxGeometry width="50" height="50" relative="1" as="geometry">
            <mxPoint x="30" y="19" as="sourcePoint" />
            <mxPoint x="380" y="19" as="targetPoint" />
          </mxGeometry>
        </mxCell>
        <mxCell id="hj8D2mjoaMXsEgfOs6C1-18" value="Radians" style="text;html=1;strokeColor=none;fillColor=none;align=left;verticalAlign=middle;whiteSpace=wrap;rounded=0;fontFamily=Noto Sans;fontSource=https%3A%2F%2Ffonts.googleapis.com%2Fcss%3Ffamily%3DNoto%2BSans;fontSize=24;" parent="1" vertex="1">
          <mxGeometry x="395" y="19" width="410" height="20" as="geometry" />
        </mxCell>
        <mxCell id="hj8D2mjoaMXsEgfOs6C1-19" value="" style="endArrow=none;html=1;fontFamily=Noto Sans;fontSource=https%3A%2F%2Ffonts.googleapis.com%2Fcss%3Ffamily%3DNoto%2BSans;fontSize=28;strokeWidth=4;" parent="1" edge="1">
          <mxGeometry width="50" height="50" relative="1" as="geometry">
            <mxPoint x="389" y="10" as="sourcePoint" />
            <mxPoint x="820" y="10" as="targetPoint" />
          </mxGeometry>
        </mxCell>
        <mxCell id="hj8D2mjoaMXsEgfOs6C1-20" value="" style="endArrow=none;html=1;fontFamily=Noto Sans;fontSource=https%3A%2F%2Ffonts.googleapis.com%2Fcss%3Ffamily%3DNoto%2BSans;fontSize=28;strokeWidth=2;exitX=1.028;exitY=0.733;exitDx=0;exitDy=0;exitPerimeter=0;" parent="1" edge="1" source="NSzI-JURLk4PuQN7T8RH-13">
          <mxGeometry width="50" height="50" relative="1" as="geometry">
            <mxPoint x="390" y="420" as="sourcePoint" />
            <mxPoint x="390" y="10" as="targetPoint" />
          </mxGeometry>
        </mxCell>
        <mxCell id="hj8D2mjoaMXsEgfOs6C1-41" value="" style="endArrow=none;html=1;fontFamily=Noto Sans;fontSource=https%3A%2F%2Ffonts.googleapis.com%2Fcss%3Ffamily%3DNoto%2BSans;fontSize=28;strokeWidth=4;" parent="1" edge="1">
          <mxGeometry width="50" height="50" relative="1" as="geometry">
            <mxPoint x="10" y="100" as="sourcePoint" />
            <mxPoint x="380" y="100" as="targetPoint" />
          </mxGeometry>
        </mxCell>
        <mxCell id="hj8D2mjoaMXsEgfOs6C1-42" value="Addition Formulae" style="text;html=1;strokeColor=none;fillColor=none;align=left;verticalAlign=middle;whiteSpace=wrap;rounded=0;fontFamily=Noto Sans;fontSource=https%3A%2F%2Ffonts.googleapis.com%2Fcss%3Ffamily%3DNoto%2BSans;fontSize=24;" parent="1" vertex="1">
          <mxGeometry x="22" y="110" width="360" height="20" as="geometry" />
        </mxCell>
        <mxCell id="hj8D2mjoaMXsEgfOs6C1-43" value="" style="endArrow=none;html=1;fontFamily=Noto Sans;fontSource=https%3A%2F%2Ffonts.googleapis.com%2Fcss%3Ffamily%3DNoto%2BSans;fontSize=16;strokeWidth=2;" parent="1" edge="1">
          <mxGeometry width="50" height="50" relative="1" as="geometry">
            <mxPoint x="11" y="410" as="sourcePoint" />
            <mxPoint x="11" y="100" as="targetPoint" />
          </mxGeometry>
        </mxCell>
        <mxCell id="hj8D2mjoaMXsEgfOs6C1-47" value="practice questions, videos, ..." style="text;html=1;strokeColor=none;fillColor=none;align=center;verticalAlign=middle;whiteSpace=wrap;rounded=0;fontFamily=Noto Sans;fontSource=https%3A%2F%2Ffonts.googleapis.com%2Fcss%3Ffamily%3DNoto%2BSans;fontSize=16;rotation=-90;" parent="1" vertex="1">
          <mxGeometry x="10" y="1101.5" width="70" height="20" as="geometry" />
        </mxCell>
        <mxCell id="hj8D2mjoaMXsEgfOs6C1-48" value="" style="endArrow=none;html=1;fontFamily=Noto Sans;fontSource=https%3A%2F%2Ffonts.googleapis.com%2Fcss%3Ffamily%3DNoto%2BSans;fontSize=28;strokeWidth=4;" parent="1" edge="1">
          <mxGeometry width="50" height="50" relative="1" as="geometry">
            <mxPoint x="390" y="430" as="sourcePoint" />
            <mxPoint x="820" y="430" as="targetPoint" />
          </mxGeometry>
        </mxCell>
        <mxCell id="hj8D2mjoaMXsEgfOs6C1-49" value="" style="endArrow=none;html=1;fontFamily=Noto Sans;fontSource=https%3A%2F%2Ffonts.googleapis.com%2Fcss%3Ffamily%3DNoto%2BSans;fontSize=16;strokeWidth=2;" parent="1" edge="1">
          <mxGeometry width="50" height="50" relative="1" as="geometry">
            <mxPoint x="391" y="620" as="sourcePoint" />
            <mxPoint x="391.08" y="431.5" as="targetPoint" />
          </mxGeometry>
        </mxCell>
        <mxCell id="hj8D2mjoaMXsEgfOs6C1-50" value="Pythagorean Identities" style="text;html=1;strokeColor=none;fillColor=none;align=left;verticalAlign=middle;whiteSpace=wrap;rounded=0;fontFamily=Noto Sans;fontSource=https%3A%2F%2Ffonts.googleapis.com%2Fcss%3Ffamily%3DNoto%2BSans;fontSize=28;" parent="1" vertex="1">
          <mxGeometry x="401" y="440" width="359" height="20" as="geometry" />
        </mxCell>
        <mxCell id="hj8D2mjoaMXsEgfOs6C1-51" value="\(\sin ^2 x+\cos ^2 x=1\)&lt;br&gt;allows you to derive more identities:&lt;br&gt;1. by dividing by \(\sin ^2 x\):&lt;br&gt;&amp;nbsp; &amp;nbsp; &amp;nbsp;\(1+\cot ^2 x=cosec ^2 x\)&lt;br&gt;2. by dividing by \(\cos ^2 x\)&lt;br&gt;&amp;nbsp; &amp;nbsp; &amp;nbsp;\(\tan ^2 x+1=\sec^2 x\)&lt;br&gt;&lt;font style=&quot;font-size: 11px&quot;&gt;(these work for any angle \(x\)&lt;/font&gt;" style="text;html=1;strokeColor=none;fillColor=none;align=left;verticalAlign=middle;whiteSpace=wrap;rounded=0;fontFamily=Noto Sans;fontSource=https%3A%2F%2Ffonts.googleapis.com%2Fcss%3Ffamily%3DNoto%2BSans;fontSize=16;" parent="1" vertex="1">
          <mxGeometry x="401" y="470" width="340" height="150" as="geometry" />
        </mxCell>
        <mxCell id="hj8D2mjoaMXsEgfOs6C1-55" value="" style="shape=image;verticalLabelPosition=bottom;labelBackgroundColor=#ffffff;verticalAlign=top;aspect=fixed;imageAspect=0;image=data:image/svg+xml,PHN2ZyB4bWxucz0iaHR0cDovL3d3dy53My5vcmcvMjAwMC9zdmciIHhtbG5zOnhsaW5rPSJodHRwOi8vd3d3LnczLm9yZy8xOTk5L3hsaW5rIiB2ZXJzaW9uPSIxLjAiIGlkPSJMYXllcl8xIiB4PSIwcHgiIHk9IjBweCIgd2lkdGg9IjYzLjk5OTAwODE3ODcxMDk0IiBoZWlnaHQ9IjYzLjk5OTAwMDU0OTMxNjQwNiIgdmlld0JveD0iNS41IC0zLjUgNjMuOTk5MDA4MTc4NzEwOTQgNjMuOTk5MDAwNTQ5MzE2NDA2IiBlbmFibGUtYmFja2dyb3VuZD0ibmV3IDUuNSAtMy41IDY0IDY0IiB4bWw6c3BhY2U9InByZXNlcnZlIj4mI3hhOzxnPiYjeGE7CTxjaXJjbGUgZmlsbD0iI0ZGRkZGRiIgY3g9IjM3Ljc4NSIgY3k9IjI4LjUwMSIgcj0iMjguODM2Ii8+JiN4YTsJPHBhdGggZD0iTTM3LjQ0MS0zLjVjOC45NTEsMCwxNi41NzIsMy4xMjUsMjIuODU3LDkuMzcyYzMuMDA4LDMuMDA5LDUuMjk1LDYuNDQ4LDYuODU3LDEwLjMxNCYjMTA7JiM5OyYjOTtjMS41NjEsMy44NjcsMi4zNDQsNy45NzEsMi4zNDQsMTIuMzE0YzAsNC4zODEtMC43NzMsOC40ODYtMi4zMTQsMTIuMzEzYy0xLjU0MywzLjgyOC0zLjgyLDcuMjEtNi44MjgsMTAuMTQzJiMxMDsmIzk7JiM5O2MtMy4xMjMsMy4wODUtNi42NjYsNS40NDgtMTAuNjI5LDcuMDg2Yy0zLjk2MSwxLjYzOC04LjA1NywyLjQ1Ny0xMi4yODUsMi40NTdzLTguMjc2LTAuODA4LTEyLjE0My0yLjQyOSYjMTA7JiM5OyYjOTtjLTMuODY2LTEuNjE4LTcuMzMzLTMuOTYxLTEwLjQtNy4wMjdjLTMuMDY3LTMuMDY2LTUuNC02LjUyNC03LTEwLjM3MlM1LjUsMzIuNzY3LDUuNSwyOC41YzAtNC4yMjksMC44MDktOC4yOTUsMi40MjgtMTIuMiYjMTA7JiM5OyYjOTtjMS42MTktMy45MDUsMy45NzItNy40LDcuMDU3LTEwLjQ4NkMyMS4wOC0wLjM5NCwyOC41NjUtMy41LDM3LjQ0MS0zLjV6IE0zNy41NTcsMi4yNzJjLTcuMzE0LDAtMTMuNDY3LDIuNTUzLTE4LjQ1OCw3LjY1NyYjMTA7JiM5OyYjOTtjLTIuNTE1LDIuNTUzLTQuNDQ4LDUuNDE5LTUuOCw4LjZjLTEuMzU0LDMuMTgxLTIuMDI5LDYuNTA1LTIuMDI5LDkuOTcyYzAsMy40MjksMC42NzUsNi43MzQsMi4wMjksOS45MTMmIzEwOyYjOTsmIzk7YzEuMzUzLDMuMTgzLDMuMjg1LDYuMDIxLDUuOCw4LjUxNmMyLjUxNCwyLjQ5Niw1LjM1MSw0LjM5OSw4LjUxNSw1LjcxNWMzLjE2MSwxLjMxNCw2LjQ3NiwxLjk3MSw5Ljk0MywxLjk3MSYjMTA7JiM5OyYjOTtjMy40MjgsMCw2Ljc1LTAuNjY1LDkuOTczLTEuOTk5YzMuMjE5LTEuMzM1LDYuMTIxLTMuMjU3LDguNzEzLTUuNzcxYzQuOTktNC44NzYsNy40ODQtMTAuOTksNy40ODQtMTguMzQ0JiMxMDsmIzk7JiM5O2MwLTMuNTQzLTAuNjQ4LTYuODk1LTEuOTQzLTEwLjA1N2MtMS4yOTMtMy4xNjItMy4xOC01Ljk4LTUuNjU0LTguNDU4QzUwLjk4NCw0Ljg0NCw0NC43OTUsMi4yNzIsMzcuNTU3LDIuMjcyeiBNMzcuMTU2LDIzLjE4NyYjMTA7JiM5OyYjOTtsLTQuMjg3LDIuMjI5Yy0wLjQ1OC0wLjk1MS0xLjAxOS0xLjYxOS0xLjY4NS0yYy0wLjY2Ny0wLjM4LTEuMjg2LTAuNTcxLTEuODU4LTAuNTcxYy0yLjg1NiwwLTQuMjg2LDEuODg1LTQuMjg2LDUuNjU3JiMxMDsmIzk7JiM5O2MwLDEuNzE0LDAuMzYyLDMuMDg0LDEuMDg1LDQuMTEzYzAuNzI0LDEuMDI5LDEuNzkxLDEuNTQ0LDMuMjAxLDEuNTQ0YzEuODY3LDAsMy4xODEtMC45MTUsMy45NDQtMi43NDNsMy45NDIsMiYjMTA7JiM5OyYjOTtjLTAuODM4LDEuNTYzLTIsMi43OTEtMy40ODYsMy42ODZjLTEuNDg0LDAuODk2LTMuMTIzLDEuMzQzLTQuOTE0LDEuMzQzYy0yLjg1NywwLTUuMTYzLTAuODc1LTYuOTE1LTIuNjI5JiMxMDsmIzk7JiM5O2MtMS43NTItMS43NTItMi42MjgtNC4xOS0yLjYyOC03LjMxM2MwLTMuMDQ4LDAuODg2LTUuNDY2LDIuNjU3LTcuMjU3YzEuNzcxLTEuNzksNC4wMDktMi42ODYsNi43MTUtMi42ODYmIzEwOyYjOTsmIzk7QzMyLjYwNCwxOC41NTgsMzUuNDQxLDIwLjEwMSwzNy4xNTYsMjMuMTg3eiBNNTUuNjEzLDIzLjE4N2wtNC4yMjksMi4yMjljLTAuNDU3LTAuOTUxLTEuMDItMS42MTktMS42ODYtMiYjMTA7JiM5OyYjOTtjLTAuNjY4LTAuMzgtMS4zMDctMC41NzEtMS45MTQtMC41NzFjLTIuODU3LDAtNC4yODcsMS44ODUtNC4yODcsNS42NTdjMCwxLjcxNCwwLjM2MywzLjA4NCwxLjA4Niw0LjExMyYjMTA7JiM5OyYjOTtjMC43MjMsMS4wMjksMS43ODksMS41NDQsMy4yMDEsMS41NDRjMS44NjUsMCwzLjE4LTAuOTE1LDMuOTQxLTIuNzQzbDQsMmMtMC44NzUsMS41NjMtMi4wNTcsMi43OTEtMy41NDEsMy42ODYmIzEwOyYjOTsmIzk7Yy0xLjQ4NiwwLjg5Ni0zLjEwNSwxLjM0My00Ljg1NywxLjM0M2MtMi44OTYsMC01LjIwOS0wLjg3NS02Ljk0MS0yLjYyOWMtMS43MzYtMS43NTItMi42MDItNC4xOS0yLjYwMi03LjMxMyYjMTA7JiM5OyYjOTtjMC0zLjA0OCwwLjg4NS01LjQ2NiwyLjY1OC03LjI1N2MxLjc3LTEuNzksNC4wMDgtMi42ODYsNi43MTMtMi42ODZDNTEuMTE3LDE4LjU1OCw1My45MzgsMjAuMTAxLDU1LjYxMywyMy4xODd6Ii8+JiN4YTs8L2c+JiN4YTs8L3N2Zz4=;" parent="1" vertex="1">
          <mxGeometry x="180" y="1110" width="44" height="44" as="geometry" />
        </mxCell>
        <mxCell id="hj8D2mjoaMXsEgfOs6C1-56" value="" style="shape=image;verticalLabelPosition=bottom;labelBackgroundColor=#ffffff;verticalAlign=top;aspect=fixed;imageAspect=0;image=data:image/svg+xml,PHN2ZyB4bWxucz0iaHR0cDovL3d3dy53My5vcmcvMjAwMC9zdmciIHhtbG5zOnhsaW5rPSJodHRwOi8vd3d3LnczLm9yZy8xOTk5L3hsaW5rIiB2ZXJzaW9uPSIxLjAiIGlkPSJMYXllcl8xIiB4PSIwcHgiIHk9IjBweCIgd2lkdGg9IjY0IiBoZWlnaHQ9IjY0IiB2aWV3Qm94PSI1LjUgLTMuNSA2NCA2NCIgZW5hYmxlLWJhY2tncm91bmQ9Im5ldyA1LjUgLTMuNSA2NCA2NCIgeG1sOnNwYWNlPSJwcmVzZXJ2ZSI+JiN4YTs8Zz4mI3hhOwk8Y2lyY2xlIGZpbGw9IiNGRkZGRkYiIGN4PSIzNy42MzciIGN5PSIyOC44MDYiIHI9IjI4LjI3NiIvPiYjeGE7CTxnPiYjeGE7CQk8cGF0aCBkPSJNMzcuNDQzLTMuNWM4Ljk4OCwwLDE2LjU3LDMuMDg1LDIyLjc0Miw5LjI1N0M2Ni4zOTMsMTEuOTY3LDY5LjUsMTkuNTQ4LDY5LjUsMjguNWMwLDguOTkxLTMuMDQ5LDE2LjQ3Ni05LjE0NSwyMi40NTYmIzEwOyYjOTsmIzk7JiM5O0M1My44NzksNTcuMzE5LDQ2LjI0Miw2MC41LDM3LjQ0Myw2MC41Yy04LjY0OSwwLTE2LjE1My0zLjE0NC0yMi41MTQtOS40M0M4LjY0NCw0NC43ODQsNS41LDM3LjI2Miw1LjUsMjguNSYjMTA7JiM5OyYjOTsmIzk7YzAtOC43NjEsMy4xNDQtMTYuMzQyLDkuNDI5LTIyLjc0MkMyMS4xMDEtMC40MTUsMjguNjA0LTMuNSwzNy40NDMtMy41eiBNMzcuNTU3LDIuMjcyYy03LjI3NiwwLTEzLjQyOCwyLjU1My0xOC40NTcsNy42NTcmIzEwOyYjOTsmIzk7JiM5O2MtNS4yMiw1LjMzNC03LjgyOSwxMS41MjUtNy44MjksMTguNTcyYzAsNy4wODYsMi41OSwxMy4yMiw3Ljc3LDE4LjM5OGM1LjE4MSw1LjE4MiwxMS4zNTIsNy43NzEsMTguNTE0LDcuNzcxJiMxMDsmIzk7JiM5OyYjOTtjNy4xMjMsMCwxMy4zMzQtMi42MDcsMTguNjI5LTcuODI4YzUuMDI5LTQuODM4LDcuNTQzLTEwLjk1Miw3LjU0My0xOC4zNDNjMC03LjI3Ni0yLjU1My0xMy40NjUtNy42NTYtMTguNTcxJiMxMDsmIzk7JiM5OyYjOTtDNTAuOTY3LDQuODI0LDQ0Ljc5NSwyLjI3MiwzNy41NTcsMi4yNzJ6IE00Ni4xMjksMjAuNTU3djEzLjA4NWgtMy42NTZ2MTUuNTQyaC05Ljk0NFYzMy42NDNoLTMuNjU2VjIwLjU1NyYjMTA7JiM5OyYjOTsmIzk7YzAtMC41NzIsMC4yLTEuMDU3LDAuNTk5LTEuNDU3YzAuNDAxLTAuMzk5LDAuODg3LTAuNiwxLjQ1Ny0wLjZoMTMuMTQ0YzAuNTMzLDAsMS4wMSwwLjIsMS40MjgsMC42JiMxMDsmIzk7JiM5OyYjOTtDNDUuOTE4LDE5LjUsNDYuMTI5LDE5Ljk4Niw0Ni4xMjksMjAuNTU3eiBNMzMuMDQyLDEyLjMyOWMwLTMuMDA4LDEuNDg1LTQuNTE0LDQuNDU4LTQuNTE0czQuNDU3LDEuNTA0LDQuNDU3LDQuNTE0JiMxMDsmIzk7JiM5OyYjOTtjMCwyLjk3MS0xLjQ4Niw0LjQ1Ny00LjQ1Nyw0LjQ1N1MzMy4wNDIsMTUuMywzMy4wNDIsMTIuMzI5eiIvPiYjeGE7CTwvZz4mI3hhOzwvZz4mI3hhOzwvc3ZnPg==;" parent="1" vertex="1">
          <mxGeometry x="230" y="1110" width="44" height="44" as="geometry" />
        </mxCell>
        <mxCell id="hj8D2mjoaMXsEgfOs6C1-57" value="" style="shape=image;verticalLabelPosition=bottom;labelBackgroundColor=#ffffff;verticalAlign=top;aspect=fixed;imageAspect=0;image=data:image/svg+xml,PHN2ZyB4bWxucz0iaHR0cDovL3d3dy53My5vcmcvMjAwMC9zdmciIHhtbG5zOnhsaW5rPSJodHRwOi8vd3d3LnczLm9yZy8xOTk5L3hsaW5rIiB2ZXJzaW9uPSIxLjAiIGlkPSJMYXllcl8xIiB4PSIwcHgiIHk9IjBweCIgd2lkdGg9IjY0IiBoZWlnaHQ9IjY0IiB2aWV3Qm94PSI1LjUgLTMuNSA2NCA2NCIgZW5hYmxlLWJhY2tncm91bmQ9Im5ldyA1LjUgLTMuNSA2NCA2NCIgeG1sOnNwYWNlPSJwcmVzZXJ2ZSI+JiN4YTs8Zz4mI3hhOwk8Y2lyY2xlIGZpbGw9IiNGRkZGRkYiIGN4PSIzNi45NDQiIGN5PSIyOC42MzEiIHI9IjI5LjEwNSIvPiYjeGE7CTxnPiYjeGE7CQk8cGF0aCBkPSJNMzcuNDQzLTMuNWM4Ljk1MSwwLDE2LjUzMSwzLjEwNSwyMi43NDIsOS4zMTVDNjYuMzkzLDExLjk4Nyw2OS41LDE5LjU0OCw2OS41LDI4LjVjMCw4Ljk1NC0zLjA0OSwxNi40NTctOS4xNDUsMjIuNTE0JiMxMDsmIzk7JiM5OyYjOTtDNTMuOTE4LDU3LjMzOCw0Ni4yNzksNjAuNSwzNy40NDMsNjAuNWMtOC42NDksMC0xNi4xNTMtMy4xNDMtMjIuNTE0LTkuNDI5QzguNjQ0LDQ0Ljc4Niw1LjUsMzcuMjY0LDUuNSwyOC41MDEmIzEwOyYjOTsmIzk7JiM5O2MwLTguNzIzLDMuMTQ0LTE2LjI4NSw5LjQyOS0yMi42ODVDMjEuMTM4LTAuMzk1LDI4LjY0My0zLjUsMzcuNDQzLTMuNXogTTM3LjU1NywyLjI3MmMtNy4yNzYsMC0xMy40MjgsMi41NzItMTguNDU3LDcuNzE1JiMxMDsmIzk7JiM5OyYjOTtjLTUuMjIsNS4yOTYtNy44MjksMTEuNDY3LTcuODI5LDE4LjUxM2MwLDcuMTI1LDIuNTksMTMuMjU3LDcuNzcsMTguNGM1LjE4MSw1LjE4MiwxMS4zNTIsNy43NzEsMTguNTE0LDcuNzcxJiMxMDsmIzk7JiM5OyYjOTtjNy4xMjMsMCwxMy4zMzQtMi42MDksMTguNjI5LTcuODI4YzUuMDI5LTQuODc2LDcuNTQzLTEwLjk5LDcuNTQzLTE4LjM0M2MwLTcuMzEzLTIuNTUzLTEzLjQ4NS03LjY1Ni0xOC41MTMmIzEwOyYjOTsmIzk7JiM5O0M1MS4wMDQsNC44NDIsNDQuODMyLDIuMjcyLDM3LjU1NywyLjI3MnogTTIzLjI3MSwyMy45ODVjMC42MDktMy45MjQsMi4xODktNi45NjIsNC43NDItOS4xMTQmIzEwOyYjOTsmIzk7JiM5O2MyLjU1Mi0yLjE1Miw1LjY1Ni0zLjIyOCw5LjMxNC0zLjIyOGM1LjAyNywwLDkuMDI5LDEuNjIsMTIsNC44NTZjMi45NzEsMy4yMzgsNC40NTcsNy4zOTEsNC40NTcsMTIuNDU3JiMxMDsmIzk7JiM5OyYjOTtjMCw0LjkxNS0xLjU0Myw5LTQuNjI3LDEyLjI1NmMtMy4wODgsMy4yNTYtNy4wODYsNC44ODYtMTIuMDAyLDQuODg2Yy0zLjYxOSwwLTYuNzQzLTEuMDg1LTkuMzcxLTMuMjU3JiMxMDsmIzk7JiM5OyYjOTtjLTIuNjI5LTIuMTcyLTQuMjA5LTUuMjU3LTQuNzQzLTkuMjU3SDMxLjFjMC4xOSwzLjg4NiwyLjUzMyw1LjgyOSw3LjAyOSw1LjgyOWMyLjI0NiwwLDQuMDU3LTAuOTcyLDUuNDI4LTIuOTE0JiMxMDsmIzk7JiM5OyYjOTtjMS4zNzMtMS45NDIsMi4wNTktNC41MzQsMi4wNTktNy43NzFjMC0zLjM5MS0wLjYyOS01Ljk3MS0xLjg4NS03Ljc0M2MtMS4yNTgtMS43NzEtMy4wNjYtMi42NTctNS40My0yLjY1NyYjMTA7JiM5OyYjOTsmIzk7Yy00LjI2OCwwLTYuNjY3LDEuODg1LTcuMiw1LjY1NmgyLjM0M2wtNi4zNDIsNi4zNDNsLTYuMzQzLTYuMzQzTDIzLjI3MSwyMy45ODVMMjMuMjcxLDIzLjk4NXoiLz4mI3hhOwk8L2c+JiN4YTs8L2c+JiN4YTs8L3N2Zz4=;" parent="1" vertex="1">
          <mxGeometry x="280" y="1110" width="44" height="44" as="geometry" />
        </mxCell>
        <mxCell id="NSzI-JURLk4PuQN7T8RH-13" value="\(\sin (30° +120°)=\sin(210°)=-0.5\)&lt;br&gt;\(\sin (30°)+\sin (120°)=1.366\)&lt;br&gt;this shows that \(\sin(A+B)\) is different to \(\sin A+\sin B\)&lt;br&gt;&lt;br&gt;\(\sin (A\pm B)=\sin A\cos B\pm \cos A\sin B\)&lt;br&gt;\(\cos (a\pm B)=\cos A\cos B \mp \sin A\sin B\)" style="text;html=1;strokeColor=none;fillColor=none;align=left;verticalAlign=middle;whiteSpace=wrap;rounded=0;fontSize=16;fontFamily=Noto Sans;fontSource=https%3A%2F%2Ffonts.googleapis.com%2Fcss%3Ffamily%3DNoto%2BSans;" parent="1" vertex="1">
          <mxGeometry x="20" y="140" width="360" height="150" as="geometry" />
        </mxCell>
        <mxCell id="NSzI-JURLk4PuQN7T8RH-32" value="" style="endArrow=none;html=1;fontFamily=Noto Sans;fontSource=https%3A%2F%2Ffonts.googleapis.com%2Fcss%3Ffamily%3DNoto%2BSans;fontSize=28;strokeWidth=4;" parent="1" edge="1">
          <mxGeometry width="50" height="50" relative="1" as="geometry">
            <mxPoint x="10" y="430" as="sourcePoint" />
            <mxPoint x="380" y="430" as="targetPoint" />
          </mxGeometry>
        </mxCell>
        <mxCell id="NSzI-JURLk4PuQN7T8RH-33" value="" style="endArrow=none;html=1;fontFamily=Noto Sans;fontSource=https%3A%2F%2Ffonts.googleapis.com%2Fcss%3Ffamily%3DNoto%2BSans;fontSize=16;strokeWidth=2;" parent="1" edge="1">
          <mxGeometry width="50" height="50" relative="1" as="geometry">
            <mxPoint x="11" y="580" as="sourcePoint" />
            <mxPoint x="11" y="430" as="targetPoint" />
          </mxGeometry>
        </mxCell>
        <mxCell id="NSzI-JURLk4PuQN7T8RH-35" value="Double Angle Formulae" style="text;html=1;strokeColor=none;fillColor=none;align=left;verticalAlign=middle;whiteSpace=wrap;rounded=0;fontFamily=Noto Sans;fontSource=https%3A%2F%2Ffonts.googleapis.com%2Fcss%3Ffamily%3DNoto%2BSans;fontSize=28;" parent="1" vertex="1">
          <mxGeometry x="11" y="440" width="349" height="20" as="geometry" />
        </mxCell>
        <mxCell id="NSzI-JURLk4PuQN7T8RH-36" value="Formulae:&lt;br&gt;- \(\sin 2A=2\sin A\cos A\)&lt;br&gt;- \(\cos 2A=\cos ^2 A-\sin ^2 A\)&lt;br&gt;- \(\cos 2A=2\cos ^2 -1\)&lt;br&gt;- \(\cos 2A=1-2\sin ^2 A\)" style="text;html=1;strokeColor=none;fillColor=none;align=left;verticalAlign=middle;whiteSpace=wrap;rounded=0;fontFamily=Noto Sans;fontSource=https%3A%2F%2Ffonts.googleapis.com%2Fcss%3Ffamily%3DNoto%2BSans;fontSize=16;" parent="1" vertex="1">
          <mxGeometry x="15.5" y="465" width="340" height="110" as="geometry" />
        </mxCell>
        <mxCell id="CILamcJ8nU6C3IH5OURe-1" value="This work is shared under a Creative Commons Attribution-ShareAlike license.&lt;br&gt;More details:&amp;nbsp;https://creativecommons.org/licenses/by-sa/4.0/" style="text;html=1;strokeColor=none;fillColor=none;align=left;verticalAlign=middle;whiteSpace=wrap;rounded=0;" vertex="1" parent="1">
          <mxGeometry x="330" y="1120" width="450" height="34" as="geometry" />
        </mxCell>
        <mxCell id="CILamcJ8nU6C3IH5OURe-2" value="These formulae can be used to expand trigonometric functions, to help simplify / evaluate trig expressions in this form" style="rounded=0;whiteSpace=wrap;html=1;fontFamily=Noto Sans;fontSource=https%3A%2F%2Ffonts.googleapis.com%2Fcss%3Ffamily%3DNoto%2BSans;fontSize=16;align=left;" vertex="1" parent="1">
          <mxGeometry x="20" y="305" width="340" height="60" as="geometry" />
        </mxCell>
        <mxCell id="CILamcJ8nU6C3IH5OURe-3" value="This shows that \(\sin 75\) can be calculated by \(\sin 45+\sin 30\)&lt;span style=&quot;color: rgba(0 , 0 , 0 , 0) ; font-family: monospace ; font-size: 0px&quot;&gt;%3Cm\xGraphModel%3E%3Croot%3E%3CmxCell%20id%3D%220%22%2F%3E%3CmxCell%20id%3D%221%22%20parent%3D%220%22%2F%3E%3CmxCell%20id%3D%222%22%20value%3D%22Increase%20power%2C%20put%20bracket%20on%20top%20of%20fraction%22%20style%3D%22text%3Bhtml%3D1%3BstrokeColor%3Dnone%3BfillColor%3Dnone%3Balign%3Dright%3BverticalAlign%3Dmiddle%3BwhiteSpace%3Dwrap%3Brounded%3D0%3BfontSize%3D16%3BfontFamily%3DNoto%20Sans%3BfontSource%3Dhttps%253A%252F%252Ffonts.googleapis.com%252Fcss%253Ffamily%253DNoto%252BSans%3B%22%20vertex%3D%221%22%20parent%3D%221%22%3E%3CmxGeometry%20x%3D%22585%22%20y%3D%22470%22%20width%3D%22225%22%20height%3D%2220%22%20as%3D%22geometry%22%2F%3E%3C%2FmxCell%3E%3C%2Froot%3E%3C%2FmxGraphModel%3E\\\)&lt;/span&gt;" style="text;html=1;strokeColor=none;fillColor=none;align=left;verticalAlign=middle;whiteSpace=wrap;rounded=0;fontSize=16;fontFamily=Noto Sans;fontSource=https%3A%2F%2Ffonts.googleapis.com%2Fcss%3Ffamily%3DNoto%2BSans;" vertex="1" parent="1">
          <mxGeometry x="20" y="380" width="330" height="20" as="geometry" />
        </mxCell>
        <mxCell id="CILamcJ8nU6C3IH5OURe-4" value="" style="shape=image;verticalLabelPosition=bottom;labelBackgroundColor=#ffffff;verticalAlign=top;aspect=fixed;imageAspect=0;image=data:image/svg+xml,PHN2ZyB4bWxucz0iaHR0cDovL3d3dy53My5vcmcvMjAwMC9zdmciIHZpZXdCb3g9IjEgMSAyOSAyOSIgd2lkdGg9IjI5IiBoZWlnaHQ9IjI5Ij48cGF0aCBkPSJNMSAxaDd2N2gtN3pNMTIgMWgydjFoMXYtMWgydjFoMXYtMWgzdjJoLTF2LTFoLTF2MWgtNnYtMWgtMXpNMjMgMWg3djdoLTd6TTIgMnY1aDV2LTV6TTkgMmgydjFoLTJ6TTI0IDJ2NWg1di01ek0zIDNoM3YzaC0zek0xMSAzaDJ2MWgtMXYxaC0xek0xOSAzaDF2MWgydjFoLTF2MWgxdjJoLTF2LTFoLTF2LTJoLTF6TTI1IDNoM3YzaC0zek0xNSA0aDF2MWgtMXpNOSA1aDJ2MWgtMnpNMTIgNWgydjFoLTJ6TTE2IDVoMXYxaDF2Mmgxdi0xaDF2MWgxdjFoLTF2MWgtMnYxaDF2MWgzdjFoMnYxaDF2MWgxdi0yaDF2NWgxdjFoLTJ2LTNoLTJ2LTFoLTF2MWgtMXYtMWgtMXYtMWgtMnYxaDF2MmgtMXYyaC0ydi0xaC0ydi0xaC0ydi0zaC0xdjJoLTF2LTJoLTF2LTFoM3YtMWgxdi0xaC0xdi0xaDF2LTFoLTF2LTJoMXYxaDF2MmgxdjJoLTF2MmgtMXYyaDF2LTJoMXYzaDF2LTFoMXYtMWgtMXYtMWgtMXYtMWgxdi0zaC0xdi0xaDF2LTJoLTF2MWgtMXYtMWgtMXYtMWgyek0xMSA2aDF2MmgtMXpNOSA3aDF2MWgtMXpNMSA5aDF2MWgxdjFoMXYxaDF2MWgtMnYtMWgtMXYtMWgtMXpNMyA5aDF2MWgtMXpNNSA5aDF2MWgtMXpNNyA5aDF2MWgtMXpNMTEgOWgxdjFoLTF6TTIxIDloMXYxaDJ2MWgtM3pNMjUgOWgxdjFoLTF6TTI4IDloMXYxaC0xek00IDEwaDF2MWgtMXpNOCAxMGgzdjFoMnYxaC0zdjFoLTF2MWgxdjJoMXYxaC0ydi0yaC0xdi0xaC0xdi0xaDF2LTFoLTF2LTFoMXpNMjYgMTBoMXYxaC0xek0yOSAxMGgxdjJoLTF2MWgxdjNoLTF2MWgxdjNoLTF2MWgtMXYtMmgxdi0xaC0xdi0zaDF2LTFoLTF2LTJoLTF2LTFoMnpNNSAxMWgxdjFoLTF6TTYgMTJoMXYxaC0xek0yNSAxMmgxdjFoLTF6TTEgMTNoMXYxaDF2Mmgxdi0xaDJ2MWgtMXYxaDR2MWgydjFoMXYxaC0xdjNoLTJ2LTFoLTN2LTFoNHYtMWgtNnYxaC0ydi0xaDF2LTFoNXYtMWgtNHYtMWgtMXYyaC0xdi00aC0xek01IDEzaDF2MWgtMXpNNyAxNWgxdjFoLTF6TTIxIDE2aDF2MWgxdi0xaDF2MWgxdjFoLTF2MmgtMXYxaDN2MmgxdjJoLTF2MmgxdjFoLTN2LTJoLTF2MWgtMXYtMWgtMXYtMmgtMXYtMmgtMnYxaC0xdi0zaDR2MWgxdi0zaC0ydi0xaDF6TTExIDE3aDF2MWgtMXpNMTIgMThoMXYxaC0xek0xIDE5aDF2MWgtMXpNMTMgMTloMnYxaC0xdjJoLTF2MmgtMnYtMWgxdi0zaDF6TTI1IDE5aDF2MWgtMXpNMjYgMjBoMXYxaC0xek0xIDIxaDF2MWgtMXpNNCAyMWgxdjFoLTF6TTE0IDIyaDF2MWgtMXpNMjIgMjJ2M2gzdi0zek0yNyAyMmgzdjJoLTF2MWgtMXYtMmgtMXpNMSAyM2g3djdoLTd6TTE1IDIzaDF2MWgxdjFoMXYtMWgydjFoLTF2MWgydjJoMXYyaC0ydi0zaC0ydjFoLTF2LTJoLTF2M2gtMXYtNGgtMXYtMWgxek0yMyAyM2gxdjFoLTF6TTIgMjR2NWg1di01ek0zIDI1aDN2M2gtM3pNOSAyNWgydjFoLTJ6TTExIDI2aDF2MWgxdjJoLTF2LTFoLTN2LTFoMnpNMTMgMjZoMXYxaC0xek0yNyAyNmgzdjJoLTF2LTFoLTJ6TTE4IDI4aDF2MmgtMXpNMjMgMjhoMXYxaC0xek0yOCAyOGgxdjFoMXYxaC0yek05IDI5aDF2MWgtMXpNMTMgMjloMXYxaC0xek0yNCAyOWgydjFoLTJ6Ii8+PC9zdmc+;" vertex="1" parent="1">
          <mxGeometry x="80" y="1068" width="84" height="84" as="geometry" />
        </mxCell>
        <mxCell id="CILamcJ8nU6C3IH5OURe-5" value="" style="endArrow=none;html=1;fontFamily=Noto Sans;fontSource=https%3A%2F%2Ffonts.googleapis.com%2Fcss%3Ffamily%3DNoto%2BSans;fontSize=28;strokeWidth=4;" edge="1" parent="1">
          <mxGeometry width="50" height="50" relative="1" as="geometry">
            <mxPoint x="10" y="600" as="sourcePoint" />
            <mxPoint x="380" y="600" as="targetPoint" />
          </mxGeometry>
        </mxCell>
        <mxCell id="CILamcJ8nU6C3IH5OURe-6" value="" style="endArrow=none;html=1;fontFamily=Noto Sans;fontSource=https%3A%2F%2Ffonts.googleapis.com%2Fcss%3Ffamily%3DNoto%2BSans;fontSize=16;strokeWidth=2;" edge="1" parent="1">
          <mxGeometry width="50" height="50" relative="1" as="geometry">
            <mxPoint x="11" y="900" as="sourcePoint" />
            <mxPoint x="11" y="600" as="targetPoint" />
          </mxGeometry>
        </mxCell>
        <mxCell id="CILamcJ8nU6C3IH5OURe-7" value="Sine and Cosine Rules" style="text;html=1;strokeColor=none;fillColor=none;align=left;verticalAlign=middle;whiteSpace=wrap;rounded=0;fontFamily=Noto Sans;fontSource=https%3A%2F%2Ffonts.googleapis.com%2Fcss%3Ffamily%3DNoto%2BSans;fontSize=28;" vertex="1" parent="1">
          <mxGeometry x="11" y="610" width="349" height="20" as="geometry" />
        </mxCell>
        <mxCell id="CILamcJ8nU6C3IH5OURe-8" value="Sine Rule&lt;br&gt;to find lengths of opposite sides&lt;br&gt;\(\frac{a}{\sin A}=\frac{b}{\sin B}=\frac{c}{\sin C}\)&lt;br&gt;to find angles&lt;br&gt;\(\frac{\sin A}{a}=\frac{\sin B}{b}=\frac{\sin C}{c}\)" style="text;html=1;strokeColor=none;fillColor=none;align=left;verticalAlign=middle;whiteSpace=wrap;rounded=0;fontFamily=Noto Sans;fontSource=https%3A%2F%2Ffonts.googleapis.com%2Fcss%3Ffamily%3DNoto%2BSans;fontSize=16;" vertex="1" parent="1">
          <mxGeometry x="11" y="640" width="340" height="110" as="geometry" />
        </mxCell>
        <mxCell id="CILamcJ8nU6C3IH5OURe-9" value="Cosine Rule&lt;br&gt;\(c^2 =a^2 +b^2 -2ab\cos C\)&lt;br&gt;can be rearranged to...&lt;br&gt;\(a^2 =b^2 +c^2 -2bc\cos A\)" style="text;html=1;strokeColor=none;fillColor=none;align=left;verticalAlign=middle;whiteSpace=wrap;rounded=0;fontFamily=Noto Sans;fontSource=https%3A%2F%2Ffonts.googleapis.com%2Fcss%3Ffamily%3DNoto%2BSans;fontSize=16;" vertex="1" parent="1">
          <mxGeometry x="10" y="755" width="340" height="85" as="geometry" />
        </mxCell>
        <mxCell id="CILamcJ8nU6C3IH5OURe-10" value="Area of triangle&lt;br&gt;\(a=\frac{1}{2}ab\sin C\)" style="text;html=1;strokeColor=none;fillColor=none;align=left;verticalAlign=middle;whiteSpace=wrap;rounded=0;fontFamily=Noto Sans;fontSource=https%3A%2F%2Ffonts.googleapis.com%2Fcss%3Ffamily%3DNoto%2BSans;fontSize=16;" vertex="1" parent="1">
          <mxGeometry x="11" y="840" width="335.5" height="55" as="geometry" />
        </mxCell>
        <mxCell id="CILamcJ8nU6C3IH5OURe-11" value="A way of measuring angles, like degrees" style="text;html=1;strokeColor=none;fillColor=none;align=left;verticalAlign=middle;whiteSpace=wrap;rounded=0;fontFamily=Noto Sans;fontSource=https%3A%2F%2Ffonts.googleapis.com%2Fcss%3Ffamily%3DNoto%2BSans;fontSize=16;" vertex="1" parent="1">
          <mxGeometry x="401" y="39" width="340" height="20" as="geometry" />
        </mxCell>
        <mxCell id="CILamcJ8nU6C3IH5OURe-12" value="" style="ellipse;whiteSpace=wrap;html=1;aspect=fixed;align=left;strokeWidth=2;fillColor=none;" vertex="1" parent="1">
          <mxGeometry x="670" y="70" width="140" height="140" as="geometry" />
        </mxCell>
        <mxCell id="CILamcJ8nU6C3IH5OURe-15" value="" style="endArrow=none;html=1;strokeWidth=2;entryX=0.729;entryY=0.057;entryDx=0;entryDy=0;entryPerimeter=0;" edge="1" parent="1" target="CILamcJ8nU6C3IH5OURe-12">
          <mxGeometry width="50" height="50" relative="1" as="geometry">
            <mxPoint x="740" y="140" as="sourcePoint" />
            <mxPoint x="790" y="90" as="targetPoint" />
          </mxGeometry>
        </mxCell>
        <mxCell id="CILamcJ8nU6C3IH5OURe-16" value="" style="endArrow=none;html=1;strokeWidth=2;" edge="1" parent="1">
          <mxGeometry width="50" height="50" relative="1" as="geometry">
            <mxPoint x="740" y="140" as="sourcePoint" />
            <mxPoint x="810" y="130" as="targetPoint" />
          </mxGeometry>
        </mxCell>
        <mxCell id="CILamcJ8nU6C3IH5OURe-17" value="r" style="text;html=1;strokeColor=none;fillColor=none;align=center;verticalAlign=middle;whiteSpace=wrap;rounded=0;" vertex="1" parent="1">
          <mxGeometry x="760" y="130" width="40" height="20" as="geometry" />
        </mxCell>
        <mxCell id="CILamcJ8nU6C3IH5OURe-19" value="r" style="text;html=1;strokeColor=none;fillColor=none;align=center;verticalAlign=middle;whiteSpace=wrap;rounded=0;" vertex="1" parent="1">
          <mxGeometry x="780" y="80" width="40" height="20" as="geometry" />
        </mxCell>
        <mxCell id="CILamcJ8nU6C3IH5OURe-20" value="r" style="text;html=1;strokeColor=none;fillColor=none;align=center;verticalAlign=middle;whiteSpace=wrap;rounded=0;" vertex="1" parent="1">
          <mxGeometry x="730" y="100" width="40" height="20" as="geometry" />
        </mxCell>
        <mxCell id="CILamcJ8nU6C3IH5OURe-21" value="$$\theta$$" style="text;html=1;strokeColor=none;fillColor=none;align=center;verticalAlign=middle;whiteSpace=wrap;rounded=0;fontFamily=Noto Sans;fontSource=https%3A%2F%2Ffonts.googleapis.com%2Fcss%3Ffamily%3DNoto%2BSans;fontSize=15;" vertex="1" parent="1">
          <mxGeometry x="738" y="116" width="40" height="20" as="geometry" />
        </mxCell>
        <mxCell id="CILamcJ8nU6C3IH5OURe-24" value="1 radian = angle formed when arc length is equal to radius&lt;br&gt;In diagram, left, \(\theta\) is equal to 1 radian" style="text;html=1;strokeColor=none;fillColor=none;align=left;verticalAlign=middle;whiteSpace=wrap;rounded=0;fontFamily=Noto Sans;fontSource=https%3A%2F%2Ffonts.googleapis.com%2Fcss%3Ffamily%3DNoto%2BSans;fontSize=16;" vertex="1" parent="1">
          <mxGeometry x="401" y="60" width="275" height="90" as="geometry" />
        </mxCell>
        <mxCell id="CILamcJ8nU6C3IH5OURe-25" value="Arc length - length of a part of the circumference \(l=r\times \theta\)" style="text;html=1;strokeColor=none;fillColor=none;align=left;verticalAlign=middle;whiteSpace=wrap;rounded=0;fontFamily=Noto Sans;fontSource=https%3A%2F%2Ffonts.googleapis.com%2Fcss%3Ffamily%3DNoto%2BSans;fontSize=16;" vertex="1" parent="1">
          <mxGeometry x="401" y="150" width="285" height="50" as="geometry" />
        </mxCell>
        <mxCell id="CILamcJ8nU6C3IH5OURe-26" value="Area of sector - area of a triangle w/ curved edge of the circle. \(a=\frac{1}{2}r^2 \theta\)" style="text;html=1;strokeColor=none;fillColor=none;align=left;verticalAlign=middle;whiteSpace=wrap;rounded=0;fontFamily=Noto Sans;fontSource=https%3A%2F%2Ffonts.googleapis.com%2Fcss%3Ffamily%3DNoto%2BSans;fontSize=16;" vertex="1" parent="1">
          <mxGeometry x="401" y="200" width="285" height="50" as="geometry" />
        </mxCell>
        <mxCell id="CILamcJ8nU6C3IH5OURe-27" value="\(\sin\), \(\cos\), \(\tan\)" style="text;html=1;strokeColor=none;fillColor=none;align=left;verticalAlign=middle;whiteSpace=wrap;rounded=0;fontFamily=Noto Sans;fontSource=https%3A%2F%2Ffonts.googleapis.com%2Fcss%3Ffamily%3DNoto%2BSans;fontSize=24;" vertex="1" parent="1">
          <mxGeometry x="395" y="289" width="155" height="20" as="geometry" />
        </mxCell>
        <mxCell id="CILamcJ8nU6C3IH5OURe-28" value="" style="endArrow=none;html=1;fontFamily=Noto Sans;fontSource=https%3A%2F%2Ffonts.googleapis.com%2Fcss%3Ffamily%3DNoto%2BSans;fontSize=28;strokeWidth=4;" edge="1" parent="1">
          <mxGeometry width="50" height="50" relative="1" as="geometry">
            <mxPoint x="389" y="280" as="sourcePoint" />
            <mxPoint x="820" y="280" as="targetPoint" />
          </mxGeometry>
        </mxCell>
        <mxCell id="CILamcJ8nU6C3IH5OURe-29" value="" style="endArrow=none;html=1;fontFamily=Noto Sans;fontSource=https%3A%2F%2Ffonts.googleapis.com%2Fcss%3Ffamily%3DNoto%2BSans;fontSize=28;strokeWidth=2;" edge="1" parent="1">
          <mxGeometry width="50" height="50" relative="1" as="geometry">
            <mxPoint x="390" y="410" as="sourcePoint" />
            <mxPoint x="390" y="280" as="targetPoint" />
          </mxGeometry>
        </mxCell>
        <mxCell id="CILamcJ8nU6C3IH5OURe-30" value="CAST Diagram&lt;br&gt;Determines which values are positive - &lt;b&gt;a&lt;/b&gt;ll, &lt;b&gt;s&lt;/b&gt;in, &lt;b&gt;t&lt;/b&gt;an,&amp;nbsp; &lt;b&gt;c&lt;/b&gt;os" style="text;html=1;strokeColor=none;fillColor=none;align=left;verticalAlign=middle;whiteSpace=wrap;rounded=0;fontFamily=Noto Sans;fontSource=https%3A%2F%2Ffonts.googleapis.com%2Fcss%3Ffamily%3DNoto%2BSans;fontSize=16;" vertex="1" parent="1">
          <mxGeometry x="395" y="317.5" width="275" height="55" as="geometry" />
        </mxCell>
        <mxCell id="CILamcJ8nU6C3IH5OURe-41" value="" style="endArrow=none;html=1;fontFamily=Noto Sans;fontSource=https%3A%2F%2Ffonts.googleapis.com%2Fcss%3Ffamily%3DNoto%2BSans;fontSize=15;strokeWidth=2;" edge="1" parent="1">
          <mxGeometry width="50" height="50" relative="1" as="geometry">
            <mxPoint x="700" y="345" as="sourcePoint" />
            <mxPoint x="820" y="345" as="targetPoint" />
          </mxGeometry>
        </mxCell>
        <mxCell id="CILamcJ8nU6C3IH5OURe-46" value="" style="endArrow=none;html=1;fontFamily=Noto Sans;fontSource=https%3A%2F%2Ffonts.googleapis.com%2Fcss%3Ffamily%3DNoto%2BSans;fontSize=15;strokeWidth=2;" edge="1" parent="1">
          <mxGeometry width="50" height="50" relative="1" as="geometry">
            <mxPoint x="760" y="400" as="sourcePoint" />
            <mxPoint x="760" y="290" as="targetPoint" />
          </mxGeometry>
        </mxCell>
        <mxCell id="CILamcJ8nU6C3IH5OURe-47" value="" style="endArrow=none;dashed=1;html=1;fontFamily=Noto Sans;fontSource=https%3A%2F%2Ffonts.googleapis.com%2Fcss%3Ffamily%3DNoto%2BSans;fontSize=15;strokeWidth=2;entryX=0.938;entryY=0.288;entryDx=0;entryDy=0;entryPerimeter=0;" edge="1" parent="1" target="CILamcJ8nU6C3IH5OURe-44">
          <mxGeometry width="50" height="50" relative="1" as="geometry">
            <mxPoint x="760" y="345" as="sourcePoint" />
            <mxPoint x="810" y="295" as="targetPoint" />
          </mxGeometry>
        </mxCell>
        <mxCell id="CILamcJ8nU6C3IH5OURe-48" value="C" style="text;html=1;strokeColor=none;fillColor=none;align=center;verticalAlign=middle;whiteSpace=wrap;rounded=0;fontFamily=Noto Sans;fontSource=https%3A%2F%2Ffonts.googleapis.com%2Fcss%3Ffamily%3DNoto%2BSans;fontSize=15;" vertex="1" parent="1">
          <mxGeometry x="800" y="385" width="20" height="20" as="geometry" />
        </mxCell>
        <mxCell id="CILamcJ8nU6C3IH5OURe-49" value="A" style="text;html=1;strokeColor=none;fillColor=none;align=center;verticalAlign=middle;whiteSpace=wrap;rounded=0;fontFamily=Noto Sans;fontSource=https%3A%2F%2Ffonts.googleapis.com%2Fcss%3Ffamily%3DNoto%2BSans;fontSize=15;" vertex="1" parent="1">
          <mxGeometry x="800" y="285" width="19.08" height="20" as="geometry" />
        </mxCell>
        <mxCell id="CILamcJ8nU6C3IH5OURe-50" value="S" style="text;html=1;strokeColor=none;fillColor=none;align=center;verticalAlign=middle;whiteSpace=wrap;rounded=0;fontFamily=Noto Sans;fontSource=https%3A%2F%2Ffonts.googleapis.com%2Fcss%3Ffamily%3DNoto%2BSans;fontSize=15;" vertex="1" parent="1">
          <mxGeometry x="700" y="285" width="20" height="20" as="geometry" />
        </mxCell>
        <mxCell id="CILamcJ8nU6C3IH5OURe-51" value="T" style="text;html=1;strokeColor=none;fillColor=none;align=center;verticalAlign=middle;whiteSpace=wrap;rounded=0;fontFamily=Noto Sans;fontSource=https%3A%2F%2Ffonts.googleapis.com%2Fcss%3Ffamily%3DNoto%2BSans;fontSize=15;" vertex="1" parent="1">
          <mxGeometry x="700" y="385" width="20" height="20" as="geometry" />
        </mxCell>
        <mxCell id="CILamcJ8nU6C3IH5OURe-52" value="" style="endArrow=none;dashed=1;html=1;fontFamily=Noto Sans;fontSource=https%3A%2F%2Ffonts.googleapis.com%2Fcss%3Ffamily%3DNoto%2BSans;fontSize=15;strokeWidth=2;exitX=0.95;exitY=0.7;exitDx=0;exitDy=0;exitPerimeter=0;" edge="1" parent="1">
          <mxGeometry width="50" height="50" relative="1" as="geometry">
            <mxPoint x="791" y="365" as="sourcePoint" />
            <mxPoint x="760" y="344" as="targetPoint" />
          </mxGeometry>
        </mxCell>
        <mxCell id="CILamcJ8nU6C3IH5OURe-67" value="" style="endArrow=none;html=1;fontFamily=Noto Sans;fontSource=https%3A%2F%2Ffonts.googleapis.com%2Fcss%3Ffamily%3DNoto%2BSans;fontSize=28;strokeWidth=4;" edge="1" parent="1">
          <mxGeometry width="50" height="50" relative="1" as="geometry">
            <mxPoint x="390" y="630" as="sourcePoint" />
            <mxPoint x="820" y="630" as="targetPoint" />
          </mxGeometry>
        </mxCell>
        <mxCell id="CILamcJ8nU6C3IH5OURe-68" value="" style="endArrow=none;html=1;fontFamily=Noto Sans;fontSource=https%3A%2F%2Ffonts.googleapis.com%2Fcss%3Ffamily%3DNoto%2BSans;fontSize=16;strokeWidth=2;" edge="1" parent="1">
          <mxGeometry width="50" height="50" relative="1" as="geometry">
            <mxPoint x="391" y="1010" as="sourcePoint" />
            <mxPoint x="391.0799999999999" y="631.5" as="targetPoint" />
          </mxGeometry>
        </mxCell>
        <mxCell id="CILamcJ8nU6C3IH5OURe-69" value="Trigonometric Identities" style="text;html=1;strokeColor=none;fillColor=none;align=left;verticalAlign=middle;whiteSpace=wrap;rounded=0;fontFamily=Noto Sans;fontSource=https%3A%2F%2Ffonts.googleapis.com%2Fcss%3Ffamily%3DNoto%2BSans;fontSize=28;" vertex="1" parent="1">
          <mxGeometry x="401" y="640" width="359" height="20" as="geometry" />
        </mxCell>
        <mxCell id="CILamcJ8nU6C3IH5OURe-70" value="sine = \(\frac{opposite}{hypotenuse}\) = \(\frac{1}{cosec\theta}\)&lt;br&gt;cosine = \(\frac{adjacent}{hypotenuse}\) = \(\frac{1}{\sec \theta}\)&lt;br&gt;tan = \(\frac{opposite}{adjacent}\) = \(\frac{1}{\cot \theta}\)&lt;br&gt;" style="text;html=1;strokeColor=none;fillColor=none;align=left;verticalAlign=middle;whiteSpace=wrap;rounded=0;fontFamily=Noto Sans;fontSource=https%3A%2F%2Ffonts.googleapis.com%2Fcss%3Ffamily%3DNoto%2BSans;fontSize=16;" vertex="1" parent="1">
          <mxGeometry x="401" y="670" width="209" height="110" as="geometry" />
        </mxCell>
        <mxCell id="CILamcJ8nU6C3IH5OURe-71" value="&lt;span style=&quot;font-size: 16px;&quot;&gt;cot = \(\frac{adjacent}{opposite}\) = \(\frac{1}{\tan \theta}\)&lt;/span&gt;&lt;br style=&quot;font-size: 16px;&quot;&gt;&lt;span style=&quot;font-size: 16px;&quot;&gt;sec = \(\frac{hypotenuse}{adjacent}\) = \(\frac{1}{\cos \theta}\)&lt;/span&gt;&lt;br style=&quot;font-size: 16px;&quot;&gt;&lt;span style=&quot;font-size: 16px;&quot;&gt;cosec = \(\frac{hypotenuse}{opposite}\) = \(\frac{1}{\sin \theta}\)&lt;/span&gt;" style="text;html=1;strokeColor=none;fillColor=none;align=right;verticalAlign=middle;whiteSpace=wrap;rounded=0;fontFamily=Noto Sans;fontSource=https%3A%2F%2Ffonts.googleapis.com%2Fcss%3Ffamily%3DNoto%2BSans;fontSize=15;" vertex="1" parent="1">
          <mxGeometry x="612.5" y="672.5" width="195" height="105" as="geometry" />
        </mxCell>
        <mxCell id="CILamcJ8nU6C3IH5OURe-72" value="\(\tan \theta =\frac{\sin \theta}{\cos \theta}\)&lt;br&gt;\(\cot \theta =\frac{\cos \theta}{\sin \theta}\)" style="text;html=1;strokeColor=none;fillColor=none;align=left;verticalAlign=middle;whiteSpace=wrap;rounded=0;fontFamily=Noto Sans;fontSource=https%3A%2F%2Ffonts.googleapis.com%2Fcss%3Ffamily%3DNoto%2BSans;fontSize=16;" vertex="1" parent="1">
          <mxGeometry x="401" y="790" width="209" height="62.5" as="geometry" />
        </mxCell>
        <mxCell id="CILamcJ8nU6C3IH5OURe-73" value="\(\sin \theta =\cos (90-\theta )\)&lt;br&gt;\(\cos \theta =\sin (90=\theta\)&lt;br&gt;\(\tan \theta =\cot (90-\theta)\)" style="text;html=1;strokeColor=none;fillColor=none;align=left;verticalAlign=middle;whiteSpace=wrap;rounded=0;fontFamily=Noto Sans;fontSource=https%3A%2F%2Ffonts.googleapis.com%2Fcss%3Ffamily%3DNoto%2BSans;fontSize=16;" vertex="1" parent="1">
          <mxGeometry x="401" y="870" width="209" height="62.5" as="geometry" />
        </mxCell>
        <mxCell id="CILamcJ8nU6C3IH5OURe-74" value="\(\sin ^2 \theta +\cos ^2 \theta =1\)&lt;br&gt;\(\tan ^2 \theta +1=\sec ^2 \theta\)&lt;br&gt;\(1+\cot ^2 \theta =cosec^2 \theta\)" style="text;html=1;strokeColor=none;fillColor=none;align=right;verticalAlign=middle;whiteSpace=wrap;rounded=0;fontFamily=Noto Sans;fontSource=https%3A%2F%2Ffonts.googleapis.com%2Fcss%3Ffamily%3DNoto%2BSans;fontSize=16;" vertex="1" parent="1">
          <mxGeometry x="598.5" y="790" width="209" height="62.5" as="geometry" />
        </mxCell>
        <mxCell id="CILamcJ8nU6C3IH5OURe-75" value="\(\sin ^2 +\cos ^2 =1\)&lt;br&gt;\(\frac{\sin ^2 \theta}{\cos ^2 \theta}+\frac{\cos ^2 \theta}{\cos ^2 \theta}=\frac{1}{\cos ^2 \theta}\)&lt;br&gt;\(\tan ^2 \theta +1=\sec ^2 \theta\)&lt;br&gt;\(\frac{\sin ^2 \theta}{\sin ^2 \theta}+\frac{\cos ^2 \theta}{\sin ^2 \theta}=\frac{1}{\sin ^2 \theta}\)&lt;br&gt;\(1+\cot ^2 \theta =cosec^2 \theta\)" style="text;html=1;strokeColor=none;fillColor=none;align=right;verticalAlign=middle;whiteSpace=wrap;rounded=0;fontFamily=Noto Sans;fontSource=https%3A%2F%2Ffonts.googleapis.com%2Fcss%3Ffamily%3DNoto%2BSans;fontSize=16;" vertex="1" parent="1">
          <mxGeometry x="598.5" y="870" width="209" height="150" as="geometry" />
        </mxCell>
        <mxCell id="CILamcJ8nU6C3IH5OURe-77" value="Expressing a\(\cos x\)+b\(\sin x\)" style="text;html=1;strokeColor=none;fillColor=none;align=left;verticalAlign=middle;whiteSpace=wrap;rounded=0;fontFamily=Noto Sans;fontSource=https%3A%2F%2Ffonts.googleapis.com%2Fcss%3Ffamily%3DNoto%2BSans;fontSize=24;" vertex="1" parent="1">
          <mxGeometry x="16" y="919" width="354" height="20" as="geometry" />
        </mxCell>
        <mxCell id="CILamcJ8nU6C3IH5OURe-78" value="" style="endArrow=none;html=1;fontFamily=Noto Sans;fontSource=https%3A%2F%2Ffonts.googleapis.com%2Fcss%3Ffamily%3DNoto%2BSans;fontSize=28;strokeWidth=4;" edge="1" parent="1">
          <mxGeometry width="50" height="50" relative="1" as="geometry">
            <mxPoint x="10" y="910" as="sourcePoint" />
            <mxPoint x="380" y="910" as="targetPoint" />
          </mxGeometry>
        </mxCell>
        <mxCell id="CILamcJ8nU6C3IH5OURe-79" value="" style="endArrow=none;html=1;fontFamily=Noto Sans;fontSource=https%3A%2F%2Ffonts.googleapis.com%2Fcss%3Ffamily%3DNoto%2BSans;fontSize=28;strokeWidth=2;" edge="1" parent="1">
          <mxGeometry width="50" height="50" relative="1" as="geometry">
            <mxPoint x="11" y="1040" as="sourcePoint" />
            <mxPoint x="11" y="910" as="targetPoint" />
          </mxGeometry>
        </mxCell>
        <mxCell id="CILamcJ8nU6C3IH5OURe-80" value="1. select appropriate addition formula&lt;br&gt;2.&amp;nbsp;" style="text;html=1;strokeColor=none;fillColor=none;align=left;verticalAlign=middle;whiteSpace=wrap;rounded=0;fontFamily=Noto Sans;fontSource=https%3A%2F%2Ffonts.googleapis.com%2Fcss%3Ffamily%3DNoto%2BSans;fontSize=16;" vertex="1" parent="1">
          <mxGeometry x="16" y="940" width="374" height="110" as="geometry" />
        </mxCell>
      </root>
    </mxGraphModel>
  </diagram>
</mxfile>
